<svg xmlns="http://www.w3.org/2000/svg" viewBox="0 0 80 160" role="img" aria-label="Rocket">
  <path d="M30 120 q10 30 20 0 q-4 20 -10 22 q-6 -2 -10 -22 z" fill="#F2C86B" opacity="0.9"/>
  <path d="M34 122 q6 22 12 0 q-2 14 -6 16 q-4 -2 -6 -16 z" fill="#F26C55" opacity="0.9"/>
  <path d="M40 8 q22 20 22 60 v40 l-10 8 l-24 0 l-10 -8 v-40 q0 -40 22 -60 z" fill="#FFEFD8" stroke="#3A3630" stroke-width="2" stroke-linejoin="round"/>
  <circle cx="40" cy="60" r="10" fill="#B7D3E4" stroke="#3A3630" stroke-width="2"/>
  <circle cx="37" cy="57" r="3" fill="#FFFFFF" opacity="0.75"/>
  <path d="M18 96 l-12 24 l16 -6 z" fill="#F26C55" stroke="#3A3630" stroke-width="2" stroke-linejoin="round"/>
  <path d="M62 96 l12 24 l-16 -6 z" fill="#F26C55" stroke="#3A3630" stroke-width="2" stroke-linejoin="round"/>
  <path d="M32 82 q8 4 16 0" stroke="#3A3630" stroke-width="1" fill="none" opacity="0.55"/>
  <path d="M32 90 q8 4 16 0" stroke="#3A3630" stroke-width="1" fill="none" opacity="0.55"/>
</svg>
